# xmcd CD database file
#
# Track frame offsets:
#	150
#	23182
#	43207
#	60748
#	74511
#	91864
#	107640
#	127126
#	146759
#	162198
#	182764
#	194176
#	210253
#	225069
#	252783
#	269660
#	288360
#	315181
#
# Disc length: 4472 seconds
#
# Revision: 0
# Processed by: cddbd v1.5.2PL0 Copyright (c) Steve Scherf et al.
# Submitted via: CDex 1.70beta2
#
DISCID=07117612
DTITLE=Various Artist - Ladies JAZZ album vol.3
DYEAR=2007
DGENRE=Jazz
TTITLE0=Gabriela Anders - Fantasia
TTITLE1=Patricia Kaas - If You Go Away
TTITLE2=Madeleine Peyroux - The Summer Wind
TTITLE3=Norah Jones - The Nearness Of You
TTITLE4=Ella Fitzgerald - Wait Till You See Him (De-Phazz Remix)
TTITLE5=Lizz Wright - Stop
TTITLE6=Marie So - Chague Jour
TTITLE7=Stacey Kent Feat. Jim Tomlinson - The Gentle Rain
TTITLE8=Laura Fygi - Sabor A Mi
TTITLE9=Eva Cassidy - Imagine
TTITLE10=Doris Day - Perhaps, Perhaps, Perhaps
TTITLE11=Yvonne Sanchez - Voa Voa
TTITLE12=Valerie Kimani - Besame Mucho
TTITLE13=Mark Whitfield Feat. Diana Krall - Early Autumn
TTITLE14=Eliane Elias - Photograph
TTITLE15=Anjani Thomas - No One After You
TTITLE16=Carmen Cuesta - Shape Of My Heart
TTITLE17=Atia Cardenal - Luien Fuera
EXTD=YEAR: 2007
EXTT0=
EXTT1=
EXTT2=
EXTT3=
EXTT4=
EXTT5=
EXTT6=
EXTT7=
EXTT8=
EXTT9=
EXTT10=
EXTT11=
EXTT12=
EXTT13=
EXTT14=
EXTT15=
EXTT16=
EXTT17=
PLAYORDER=
